Coordinates
version=1
nRows=13
nColumns=40
inDegrees=yes

Units are S.I. units (second, meters, Newtons, ...)
Angles are in degrees.

endheader
time	pelvis_tilt	pelvis_list	pelvis_rotation	pelvis_tx	pelvis_ty	pelvis_tz	hip_flexion_r	hip_adduction_r	hip_rotation_r	knee_angle_r	knee_angle_r_beta	ankle_angle_r	subtalar_angle_r	mtp_angle_r	hip_flexion_l	hip_adduction_l	hip_rotation_l	knee_angle_l	knee_angle_l_beta	ankle_angle_l	subtalar_angle_l	mtp_angle_l	lumbar_extension	lumbar_bending	lumbar_rotation	arm_flex_r	arm_add_r	arm_rot_r	elbow_flex_r	pro_sup_r	wrist_flex_r	wrist_dev_r	arm_flex_l	arm_add_l	arm_rot_l	elbow_flex_l	pro_sup_l	wrist_flex_l	wrist_dev_l
     56.48250000	     -1.32003714	     -0.96865102	      4.97432708	      1.14916372	      0.90735309	      0.55015693	     15.91683555	      1.88832578	     -5.48962414	     35.60834009	     35.60834009	     21.25064048	    -15.02348693	      0.86923393	     32.18566907	    -11.68499099	      3.94360760	     64.35330687	     64.35330687	     10.18525421	    -19.22832171	     13.48879355	    -13.87173088	      0.85543450	      2.35116132	     24.04762367	    -18.07944385	     -4.37923003	     47.76854257	     45.84467631	      0.00000000	      0.00000000	     -6.01296199	     -8.30077382	      5.40256937	     23.15495742	     45.80151157	      0.00000000	      0.00000000
     56.50385714	     -1.33901194	     -1.32102488	      6.31541438	      1.14737943	      0.90788437	      0.54978725	     15.37763383	      2.13351509	     -6.61672833	     34.95175570	     34.95175570	     21.24709376	    -15.22263778	      1.09733883	     33.59384212	    -11.41768362	      4.35779680	     62.06785844	     62.06785844	     10.55046409	    -19.24239381	     14.16900218	    -13.56810096	      1.39753328	      2.55836343	     27.21145826	    -18.66735984	     -5.24297177	     49.28779368	     45.84283984	      0.00000000	      0.00000000	     -8.28274671	     -7.97920305	      5.99304324	     22.91629412	     45.62127072	      0.00000000	      0.00000000
     56.52521429	     -1.67367858	     -1.71151906	      7.76443464	      1.14485679	      0.90847786	      0.54880092	     15.17617093	      2.32018033	     -7.86824347	     34.15488975	     34.15488975	     21.10168608	    -15.40914798	      1.34993332	     35.05368420	    -10.94743417	      4.80833652	     59.00876034	     59.00876034	     10.38604997	    -19.16080972	     14.49364956	    -12.99653222	      1.88750732	      3.19202700	     30.21166214	    -20.07591792	     -5.77355374	     50.46528939	     45.84153522	      0.00000000	      0.00000000	     -9.95525587	     -7.60205708	      6.17016489	     22.57106876	     45.54914217	      0.00000000	      0.00000000
     56.54657143	     -1.81929729	     -2.44989280	      9.34271845	      1.14234383	      0.90977701	      0.54745012	     14.48984478	      2.84255691	     -9.57069939	     32.69531321	     32.69531321	     20.70146793	    -15.13509654	      1.13654592	     35.96194039	    -10.68113157	      5.55283055	     55.12971509	     55.12971509	      8.94170986	    -19.04459760	     12.13688260	    -12.63527919	      2.93450284	      2.59843942	     33.60984701	    -20.07066839	     -6.57092919	     52.94483037	     45.72397637	      0.00000000	      0.00000000	    -13.65384490	     -9.36214800	     18.40249125	     27.00138302	     43.39197085	      0.00000000	      0.00000000
     56.56792857	     -2.08283382	     -2.96479410	     10.72795136	      1.13987676	      0.91148159	      0.54579563	     13.85726340	      3.14709130	    -11.06126257	     31.13707692	     31.13707692	     20.36038430	    -14.68722580	      1.39133829	     36.52540902	    -10.08301813	      6.23516931	     50.83242487	     50.83242487	      7.81268454	    -18.65648862	     12.08807170	    -12.12465547	      3.60947846	      2.52504205	     36.85144718	    -20.74902630	     -6.82377500	     54.80057867	     45.68473662	      0.00000000	      0.00000000	    -15.47250008	     -8.93936338	     18.64294741	     26.98805904	     43.34700823	      0.00000000	      0.00000000
     56.58928571	     -2.34025196	     -3.30777372	     11.87187786	      1.13774772	      0.91351662	      0.54417312	     13.11476144	      3.33425076	    -12.36590024	     29.45032584	     29.45032584	     20.00185697	    -14.07563083	      1.56044827	     36.58441712	     -9.48157074	      6.65947639	     46.15707743	     46.15707743	      6.31772591	    -17.85958503	     11.88664826	    -11.63839954	      4.06593866	      2.57123171	     39.98416648	    -21.30266446	     -6.90531551	     56.62014594	     45.63974719	      0.00000000	      0.00000000	    -17.24133528	     -8.57879955	     18.88640050	     27.25051241	     43.29457109	      0.00000000	      0.00000000
     56.61064286	     -2.59034852	     -3.53924613	     12.82737837	      1.13601501	      0.91526426	      0.54247543	     12.37982809	      3.35072403	    -13.77024221	     27.90761551	     27.90761551	     19.43248144	    -13.10410301	      0.51943204	     36.19961192	     -9.11273929	      6.52237370	     41.14448817	     41.14448817	      3.12002104	    -16.59318470	      7.05919853	    -11.25173547	      4.35790148	      2.20997856	     43.11500235	    -21.68404761	     -5.88302485	     59.30610834	     45.51926831	      0.00000000	      0.00000000	    -19.98542888	     -8.68486306	     19.74327074	     30.23006973	     43.19147401	      0.00000000	      0.00000000
     56.63200000	     -2.73718587	     -3.64297663	     13.48022302	      1.13480061	      0.91738094	      0.54102199	     11.42213656	      3.48715152	    -14.49033059	     26.20020176	     26.20020176	     19.10359229	    -12.49712217	      0.71191805	     35.56132681	     -8.73706760	      6.37729187	     36.63093857	     36.63093857	      1.90902253	    -14.45284869	      7.58545509	    -10.91908453	      4.46540257	      2.72800521	     45.99989936	    -22.20864509	     -5.98452836	     60.61561316	     45.49301875	      0.00000000	      0.00000000	    -21.25710528	     -8.36666684	     20.07641205	     30.23832453	     43.14556336	      0.00000000	      0.00000000
     56.65335714	     -2.77550328	     -3.73194909	     14.00877395	      1.13405832	      0.91910454	      0.53956213	     10.31690069	      3.58597492	    -15.43447491	     24.50362372	     24.50362372	     18.46804766	    -11.49688615	     -0.57967852	     34.66075537	     -8.58041611	      5.91352975	     32.32704675	     32.32704675	     -0.12167283	    -12.08451572	      5.32197617	    -10.74741101	      4.53848410	      2.97699147	     48.67561205	    -22.60772002	     -5.16108807	     62.91067268	     45.40296312	      0.00000000	      0.00000000	    -23.12824115	     -8.59989679	     21.94659796	     32.42320247	     43.03794966	      0.00000000	      0.00000000
     56.67471429	     -2.88795078	     -3.68821158	     14.35200882	      1.13353338	      0.92049066	      0.53813524	      9.45565202	      3.58423165	    -15.92928513	     23.21865086	     23.21865086	     18.33461260	    -10.77329854	     -0.49398529	     33.82991104	     -8.33560279	      5.36648789	     28.69153255	     28.69153255	     -0.94295398	     -9.51168147	      6.04659672	    -10.50008945	      4.37418314	      3.37163943	     51.15698208	    -22.62505237	     -5.23281778	     64.29097878	     45.37162203	      0.00000000	      0.00000000	    -24.16083969	     -8.20032641	     22.26926984	     32.36669671	     43.00489555	      0.00000000	      0.00000000
     56.69607143	     -2.88222559	     -3.70047840	     14.62921906	      1.13333366	      0.92149266	      0.53665851	      8.50300972	      3.65531626	    -16.48718685	     22.02759126	     22.02759126	     18.28199632	     -9.83913829	     -0.59386954	     32.98135353	     -8.25135107	      4.69494898	     25.70826712	     25.70826712	     -1.53375064	     -6.88440004	      6.45646628	    -10.39487562	      4.26613895	      3.61275096	     53.39997735	    -22.42677351	     -5.18579822	     65.97000701	     45.32503273	      0.00000000	      0.00000000	    -25.17394340	     -7.80579849	     22.60381071	     32.51998741	     42.97412337	      0.00000000	      0.00000000
     56.71742857	     -2.95644251	     -3.74103990	     14.84599876	      1.13326566	      0.92187191	      0.53510880	      7.81855232	      3.71414875	    -16.89516303	     21.17886722	     21.17886722	     18.28809143	     -9.15481658	     -0.74138149	     32.25376563	     -8.15982626	      4.13182326	     23.26499731	     23.26499731	     -1.90784575	     -4.73026706	      6.66772325	    -10.17440918	      4.14223633	      3.90686862	     55.29802518	    -22.15589634	     -5.12063570	     67.55738519	     45.27941955	      0.00000000	      0.00000000	    -25.84257026	     -7.44808520	     22.85755648	     32.73468577	     42.95403965	      0.00000000	      0.00000000
     56.73878571	     -2.91931749	     -3.87480027	     15.05277306	      1.13346142	      0.92185879	      0.53339519	      7.03261579	      3.87214730	    -17.45140561	     20.36107781	     20.36107781	     18.31173960	     -8.26359944	     -1.26304658	     31.61332998	     -8.24868448	      3.36417026	     21.55479920	     21.55479920	     -2.15759341	     -2.53905017	      5.95242480	    -10.13549546	      4.12352029	      4.04102000	     56.62557544	    -21.82919344	     -5.07141322	     70.11302411	     45.20310037	      0.00000000	      0.00000000	    -26.53530035	     -7.18205936	     23.27716991	     33.21722019	     42.94513740	      0.00000000	      0.00000000
